<svg id="Layer_1" enable-background="new 0 0 512 512" height="512" viewBox="0 0 512 512" width="512" xmlns="http://www.w3.org/2000/svg"><g id="XMLID_1923_"><g id="XMLID_448_"><path id="XMLID_475_" d="m502 0h-365c-5.522 0-10 4.477-10 10s4.478 10 10 10h27v144h-144v-144h27c5.522 0 10-4.477 10-10s-4.478-10-10-10h-37c-5.522 0-10 4.477-10 10v492c0 5.523 4.478 10 10 10h492c5.522 0 10-4.477 10-10v-492c0-5.523-4.478-10-10-10zm-174 348v144h-144v-144zm-144-20v-144h144v144zm164-144h144v144h-144zm144-20h-144v-144h144zm-308-144h144v144h-144zm-20 164v144h-144v-144zm-144 164h144v144h-144zm328 144v-144h144v144z"/><path id="XMLID_483_" d="m83.45 225.937h7.1v70c0 5.523 4.478 10 10 10s10-4.477 10-10v-80c0-5.523-4.478-10-10-10h-17.1c-5.522 0-10 4.477-10 10s4.478 10 10 10z"/><path id="XMLID_484_" d="m114.005 370h-44.01c-5.522 0-10 4.477-10 10s4.478 10 10 10h28.69l-29.002 65.976c-2.223 5.056.074 10.957 5.13 13.179 1.31.576 2.675.848 4.02.848 3.846 0 7.513-2.231 9.159-5.978l35.167-80c1.359-3.092 1.066-6.662-.78-9.491s-4.996-4.534-8.374-4.534z"/><path id="XMLID_488_" d="m278.188 248.299c3.025-4.347 4.805-9.621 4.805-15.306 0-14.814-12.052-26.866-26.866-26.866s-26.866 12.052-26.866 26.866c0 5.685 1.78 10.959 4.805 15.306-6.789 6.072-11.072 14.891-11.072 24.694 0 18.271 14.863 33.134 33.134 33.134s33.134-14.864 33.134-33.134c-.001-9.804-4.284-18.622-11.074-24.694zm-28.927-15.306c0-3.786 3.08-6.866 6.866-6.866s6.866 3.08 6.866 6.866-3.08 6.866-6.866 6.866-6.866-3.08-6.866-6.866zm6.866 53.134c-7.242 0-13.134-5.892-13.134-13.134s5.892-13.134 13.134-13.134 13.134 5.892 13.134 13.134-5.892 13.134-13.134 13.134z"/><path id="XMLID_1108_" d="m256.127 75.104c-.606 0-1.208.018-1.805.05 6.467-9.843 13.214-15.105 13.445-15.282 4.402-3.303 5.31-9.546 2.021-13.967-3.296-4.432-9.563-5.351-13.991-2.056-1.146.853-27.945 21.203-32.637 59.383-.272 1.713-.417 3.468-.417 5.256 0 18.408 14.977 33.385 33.385 33.385s33.385-14.977 33.385-33.385-14.978-33.384-33.386-33.384zm0 46.769c-7.381 0-13.385-6.004-13.385-13.385s6.004-13.385 13.385-13.385 13.385 6.004 13.385 13.385-6.004 13.385-13.385 13.385z"/><path id="XMLID_1138_" d="m92 20c2.63 0 5.21-1.07 7.069-2.93 1.861-1.86 2.931-4.44 2.931-7.07s-1.07-5.21-2.931-7.07c-1.859-1.86-4.439-2.93-7.069-2.93s-5.21 1.07-7.07 2.93c-1.861 1.86-2.93 4.44-2.93 7.07s1.069 5.21 2.93 7.07 4.44 2.93 7.07 2.93z"/><g id="XMLID_1090_"><g id="XMLID_450_"><path id="XMLID_452_" d="m420.114 306.127c-7.367 0-14.365-2.309-20.284-6.698-4.436-3.29-5.365-9.553-2.075-13.989s9.553-5.365 13.989-2.075c2.52 1.869 5.515 2.824 8.679 2.759 7.347-.148 13.4-6.003 13.781-13.331.203-3.915-1.166-7.632-3.855-10.464-2.69-2.834-6.321-4.396-10.222-4.396-5.913 0-8.204.839-11.274 2.221-.312.14-.514.239-.583.274-3.362 1.693-7.413 1.367-10.446-.864-3.033-2.23-4.578-5.964-3.963-9.679l5.864-35.394c.8-4.826 4.974-8.365 9.865-8.365h29.602c5.522 0 10 4.477 10 10s-4.478 10-10 10h-21.122l-1.975 11.92c1.254-.075 2.592-.113 4.032-.113 9.303 0 18.315 3.873 24.726 10.625 6.503 6.849 9.814 15.824 9.324 25.272-.922 17.749-15.571 31.931-33.352 32.29-.236.005-.474.007-.711.007z"/></g></g></g></g></svg>